<svg width="131" height="40" viewBox="0 0 131 40" fill="none" xmlns="http://www.w3.org/2000/svg">
<path d="M63.457 14.512C65.089 14.512 66.401 15.016 67.393 16.024C68.401 17.016 68.905 18.408 68.905 20.2V28H65.545V20.656C65.545 19.616 65.281 18.824 64.753 18.28C64.225 17.72 63.505 17.44 62.593 17.44C61.681 17.44 60.953 17.72 60.409 18.28C59.881 18.824 59.617 19.616 59.617 20.656V28H56.2571V20.656C56.2571 19.616 55.9931 18.824 55.4651 18.28C54.9371 17.72 54.2171 17.44 53.3051 17.44C52.3771 17.44 51.6411 17.72 51.0971 18.28C50.5691 18.824 50.3051 19.616 50.3051 20.656V28H46.9451V14.704H50.3051V16.312C50.7371 15.752 51.2891 15.312 51.9611 14.992C52.6491 14.672 53.4011 14.512 54.2171 14.512C55.2571 14.512 56.1851 14.736 57.0011 15.184C57.8171 15.616 58.449 16.24 58.897 17.056C59.329 16.288 59.953 15.672 60.769 15.208C61.601 14.744 62.497 14.512 63.457 14.512Z" fill="white"/>
<path d="M77.997 28.216C76.717 28.216 75.565 27.936 74.541 27.376C73.517 26.8 72.709 25.992 72.117 24.952C71.541 23.912 71.253 22.712 71.253 21.352C71.253 19.992 71.549 18.792 72.141 17.752C72.749 16.712 73.573 15.912 74.613 15.352C75.653 14.776 76.813 14.488 78.093 14.488C79.373 14.488 80.533 14.776 81.573 15.352C82.613 15.912 83.429 16.712 84.021 17.752C84.629 18.792 84.933 19.992 84.933 21.352C84.933 22.712 84.621 23.912 83.997 24.952C83.389 25.992 82.557 26.8 81.501 27.376C80.461 27.936 79.293 28.216 77.997 28.216ZM77.997 25.288C78.605 25.288 79.173 25.144 79.701 24.856C80.245 24.552 80.677 24.104 80.997 23.512C81.317 22.92 81.477 22.2 81.477 21.352C81.477 20.088 81.141 19.12 80.469 18.448C79.813 17.76 79.005 17.416 78.045 17.416C77.085 17.416 76.277 17.76 75.621 18.448C74.981 19.12 74.661 20.088 74.661 21.352C74.661 22.616 74.973 23.592 75.597 24.28C76.237 24.952 77.037 25.288 77.997 25.288Z" fill="white"/>
<path d="M94.766 14.512C96.35 14.512 97.63 15.016 98.606 16.024C99.582 17.016 100.07 18.408 100.07 20.2V28H96.71V20.656C96.71 19.6 96.446 18.792 95.918 18.232C95.39 17.656 94.67 17.368 93.758 17.368C92.83 17.368 92.094 17.656 91.55 18.232C91.022 18.792 90.758 19.6 90.758 20.656V28H87.398V14.704H90.758V16.36C91.206 15.784 91.774 15.336 92.462 15.016C93.166 14.68 93.934 14.512 94.766 14.512Z" fill="white"/>
<path d="M115.625 21.064C115.625 21.544 115.593 21.976 115.529 22.36H105.809C105.889 23.32 106.225 24.072 106.817 24.616C107.409 25.16 108.137 25.432 109.001 25.432C110.249 25.432 111.137 24.896 111.665 23.824H115.289C114.905 25.104 114.169 26.16 113.081 26.992C111.993 27.808 110.657 28.216 109.073 28.216C107.793 28.216 106.641 27.936 105.617 27.376C104.609 26.8 103.817 25.992 103.241 24.952C102.681 23.912 102.401 22.712 102.401 21.352C102.401 19.976 102.681 18.768 103.241 17.728C103.801 16.688 104.585 15.888 105.593 15.328C106.601 14.768 107.761 14.488 109.073 14.488C110.337 14.488 111.465 14.76 112.457 15.304C113.465 15.848 114.241 16.624 114.785 17.632C115.345 18.624 115.625 19.768 115.625 21.064ZM112.145 20.104C112.129 19.24 111.817 18.552 111.209 18.04C110.601 17.512 109.857 17.248 108.977 17.248C108.145 17.248 107.441 17.504 106.865 18.016C106.305 18.512 105.961 19.208 105.833 20.104H112.145Z" fill="white"/>
<path d="M130.798 14.704L122.566 34.288H118.99L121.87 27.664L116.542 14.704H120.31L123.742 23.992L127.222 14.704H130.798Z" fill="white"/>
<path d="M34.1422 5.85781C30.3647 2.08031 25.3422 0 20 0C14.6578 0 9.63531 2.08031 5.85781 5.85781C2.08031 9.63531 0 14.6578 0 20C0 25.3422 2.08039 30.3646 5.85781 34.1422C9.63523 37.9198 14.6578 40 20 40C25.3422 40 30.3647 37.9197 34.1422 34.1422C37.9197 30.3647 40 25.3422 40 20C40 14.6578 37.9196 9.63539 34.1422 5.85781Z" fill="#33CC95"/>
<path d="M19.5714 8V33.1429" stroke="white" stroke-width="2" stroke-linecap="round" stroke-linejoin="round"/>
<path d="M25.2857 12.5714H16.7143C15.6534 12.5714 14.636 12.9929 13.8859 13.743C13.1357 14.4931 12.7143 15.5106 12.7143 16.5714C12.7143 17.6323 13.1357 18.6497 13.8859 19.3999C14.636 20.15 15.6534 20.5714 16.7143 20.5714H22.4286C23.4894 20.5714 24.5069 20.9929 25.257 21.743C26.0072 22.4932 26.4286 23.5106 26.4286 24.5714C26.4286 25.6323 26.0072 26.6497 25.257 27.3999C24.5069 28.15 23.4894 28.5714 22.4286 28.5714H12.7143" stroke="white" stroke-width="2" stroke-linecap="round" stroke-linejoin="round"/>
</svg>
